<?xml version="1.0" standalone="no"?><!DOCTYPE svg PUBLIC "-//W3C//DTD SVG 1.1//EN" "http://www.w3.org/Graphics/SVG/1.1/DTD/svg11.dtd"><svg width="400" height="250" version="1.1" xmlns="http://www.w3.org/2000/svg" xmlns:xlink="http://www.w3.org/1999/xlink"><defs xmlns="http://www.w3.org/1999/xhtml"><style type="text/css"><![CDATA[
text { font-family: sans-serif; }
.tick { fill-opacity: 0; stroke: rgb(0, 0, 0); stroke-width: 1px; }
.domain { fill: none; fill-opacity: 0; stroke: rgb(0, 0, 0); stroke-width: 1px; }
.axis line { fill: none; fill-opacity: 0; stroke: rgb(0, 0, 0); stroke-width: 1px; shape-rendering: crispedges; }
.axis text { font-family: sans-serif; font-size: 11px; stroke: rgb(128, 128, 128); }
circle { fill-opacity: 0.3; stroke-opacity: 0.99; }
circle:hover { fill-opacity: 1; }
.label { font-family: sans-serif; font-size: 15px; }
.d3-tip { line-height: 1; font-weight: bold; padding: 12px; color: rgb(255, 255, 255); border-radius: 2px; pointer-events: none; max-width: 250px; background: rgba(0, 0, 0, 0.8); }
.d3-tip::after { box-sizing: border-box; display: inline; font-size: 10px; width: 100%; line-height: 1; color: rgba(0, 0, 0, 0.8); position: absolute; pointer-events: none; }
.d3-tip::after { content: '▼'; margin: -1px 0px 0px; top: 100%; left: 0px; text-align: center; }
line { stroke: rgb(128, 128, 128); stroke-width: 1px; opacity: 0.15; }
.perfect { stroke: rgb(128, 128, 128); stroke-width: 3px; opacity: 0.5; }]]></style></defs><g transform="translate(30,10)"><g class="axis x-axis" transform="translate(0,210)"><g class="tick" transform="translate(30.666355441526292,0)" style="opacity: 1;"><line y2="6" x2="0"/><text dy=".71em" y="9" x="0" style="text-anchor: middle;">-1.5</text></g><g class="tick" transform="translate(80.44423696101752,0)" style="opacity: 1;"><line y2="6" x2="0"/><text dy=".71em" y="9" x="0" style="text-anchor: middle;">-1.0</text></g><g class="tick" transform="translate(130.22211848050875,0)" style="opacity: 1;"><line y2="6" x2="0"/><text dy=".71em" y="9" x="0" style="text-anchor: middle;">-0.5</text></g><g class="tick" transform="translate(180,0)" style="opacity: 1;"><line y2="6" x2="0"/><text dy=".71em" y="9" x="0" style="text-anchor: middle;">0.0</text></g><g class="tick" transform="translate(229.77788151949125,0)" style="opacity: 1;"><line y2="6" x2="0"/><text dy=".71em" y="9" x="0" style="text-anchor: middle;">0.5</text></g><g class="tick" transform="translate(279.5557630389825,0)" style="opacity: 1;"><line y2="6" x2="0"/><text dy=".71em" y="9" x="0" style="text-anchor: middle;">1.0</text></g><g class="tick" transform="translate(329.33364455847374,0)" style="opacity: 1;"><line y2="6" x2="0"/><text dy=".71em" y="9" x="0" style="text-anchor: middle;">1.5</text></g><path class="domain" d="M0,6V0H360V6"/></g><g class="axis y-axis"><g class="tick" transform="translate(0,204.55576303898326)" style="opacity: 1;"><line x2="-6" y2="0"/><text dy=".32em" x="-9" y="0" style="text-anchor: end;">-1.0</text></g><g class="tick" transform="translate(0,184.6446104311866)" style="opacity: 1;"><line x2="-6" y2="0"/><text dy=".32em" x="-9" y="0" style="text-anchor: end;">-0.8</text></g><g class="tick" transform="translate(0,164.73345782338995)" style="opacity: 1;"><line x2="-6" y2="0"/><text dy=".32em" x="-9" y="0" style="text-anchor: end;">-0.6</text></g><g class="tick" transform="translate(0,144.8223052155933)" style="opacity: 1;"><line x2="-6" y2="0"/><text dy=".32em" x="-9" y="0" style="text-anchor: end;">-0.4</text></g><g class="tick" transform="translate(0,124.91115260779665)" style="opacity: 1;"><line x2="-6" y2="0"/><text dy=".32em" x="-9" y="0" style="text-anchor: end;">-0.2</text></g><g class="tick" transform="translate(0,105)" style="opacity: 1;"><line x2="-6" y2="0"/><text dy=".32em" x="-9" y="0" style="text-anchor: end;">0.0</text></g><g class="tick" transform="translate(0,85.08884739220335)" style="opacity: 1;"><line x2="-6" y2="0"/><text dy=".32em" x="-9" y="0" style="text-anchor: end;">0.2</text></g><g class="tick" transform="translate(0,65.17769478440671)" style="opacity: 1;"><line x2="-6" y2="0"/><text dy=".32em" x="-9" y="0" style="text-anchor: end;">0.4</text></g><g class="tick" transform="translate(0,45.266542176610024)" style="opacity: 1;"><line x2="-6" y2="0"/><text dy=".32em" x="-9" y="0" style="text-anchor: end;">0.6</text></g><g class="tick" transform="translate(0,25.35538956881339)" style="opacity: 1;"><line x2="-6" y2="0"/><text dy=".32em" x="-9" y="0" style="text-anchor: end;">0.8</text></g><g class="tick" transform="translate(0,5.444236961016732)" style="opacity: 1;"><line x2="-6" y2="0"/><text dy=".32em" x="-9" y="0" style="text-anchor: end;">1.0</text></g><path class="domain" d="M-6,0H0V210H-6"/></g><line x1="129.16644975617086" y1="210" x2="162.737194340761" y2="0" id="q-0" class="non-perfect"/><line x1="114.12592460935454" y1="210" x2="147.92917578630295" y2="0" id="q-1" class="non-perfect"/><line x1="120.93835828040487" y1="210" x2="167.8988326446786" y2="0" id="q-2" class="perfect"/><line x1="97.96033465372648" y1="210" x2="149.01692525529168" y2="0" id="q-3" class="non-perfect"/><line x1="113.10333459154467" y1="210" x2="160.3216233668423" y2="0" id="q-4" class="perfect"/><line x1="97.58650353363858" y1="210" x2="149.14484700241718" y2="0" id="q-5" class="non-perfect"/><line x1="162.15038594873246" y1="210" x2="124.11303850624498" y2="0" id="q-6" class="non-perfect"/><line x1="189.90204339602633" y1="210" x2="206.50043806390545" y2="0" id="q-7" class="perfect"/><line x1="189.2706243057568" y1="210" x2="208.00982678504047" y2="0" id="q-8" class="perfect"/><line x1="192.33457812194186" y1="210" x2="204.54997432056675" y2="0" id="q-9" class="perfect"/><line x1="111.95109984289982" y1="210" x2="144.8335594997108" y2="0" id="q-10" class="non-perfect"/><line x1="113.12351938892577" y1="210" x2="144.5023574009457" y2="0" id="q-11" class="non-perfect"/><line x1="176.77233822532747" y1="210" x2="194.36953476519597" y2="0" id="q-12" class="perfect"/><line x1="176.25219774142258" y1="210" x2="195.00573074532176" y2="0" id="q-13" class="perfect"/><line x1="103.95770344269746" y1="210" x2="150.73243285096095" y2="0" id="q-14" class="non-perfect"/><line x1="197.6047777010724" y1="210" x2="198.22082897956804" y2="0" id="q-15" class="perfect"/><line x1="256.80715798496203" y1="210" x2="266.3332729483274" y2="0" id="q-16" class="non-perfect"/><line x1="131.6723287173858" y1="210" x2="172.56937380009782" y2="0" id="q-17" class="non-perfect"/><line x1="180.22311820710442" y1="210" x2="192.3767545903217" y2="0" id="q-18" class="perfect"/><line x1="113.24371942526142" y1="210" x2="155.31298455212598" y2="0" id="q-19" class="perfect"/><line x1="125.79530252752687" y1="210" x2="157.8883586505956" y2="0" id="q-20" class="perfect"/><line x1="178.34587745195662" y1="210" x2="193.10367303097718" y2="0" id="q-21" class="perfect"/><line x1="196.4052369368413" y1="210" x2="197.5390684191298" y2="0" id="q-22" class="perfect"/><line x1="360" y1="197.2584442515205" x2="27.17764288610328" y2="0" id="q-23" class="non-perfect"/><line x1="174.87848788286658" y1="210" x2="195.90465504507966" y2="0" id="q-24" class="perfect"/><line x1="0" y1="27.143257684462725" x2="231.1510905119714" y2="210" id="q-25" class="perfect"/><line x1="244.72172252296235" y1="210" x2="2.070861490220487" y2="0" id="q-26" class="perfect"/><line x1="0" y1="11.194557882551068" x2="360" y2="145.98544085203488" id="q-27" class="non-perfect"/><line x1="0" y1="3.5281288926602095" x2="223.2558334233784" y2="210" id="q-28" class="perfect"/><line x1="0" y1="10.936534891646783" x2="237.5385832719798" y2="210" id="q-29" class="perfect"/><line x1="246.71146830312063" y1="210" x2="97.61109935181908" y2="0" id="q-30" class="non-perfect"/><line x1="278.6286797430825" y1="210" x2="49.74888529159746" y2="0" id="q-31" class="perfect"/><line x1="241.6127675030583" y1="210" x2="12.437393632314254" y2="0" id="q-32" class="perfect"/><line x1="243.2064687788694" y1="210" x2="2.859337964885186" y2="0" id="q-33" class="perfect"/><line x1="213.4568413522206" y1="210" x2="316.2165708497827" y2="0" id="q-34" class="non-perfect"/><line x1="215.65324923055206" y1="210" x2="89.45833168414315" y2="0" id="q-35" class="perfect"/><line x1="244.99665769158824" y1="210" x2="58.12288237723568" y2="0" id="q-36" class="non-perfect"/><line x1="205.92460330810366" y1="210" x2="105.27781163802713" y2="0" id="q-37" class="non-perfect"/><line x1="0" y1="8.472670200979396" x2="265.25214234740264" y2="210" id="q-38" class="non-perfect"/><line x1="66.46566766306402" y1="210" x2="189.1387605832949" y2="0" id="q-39" class="non-perfect"/><line x1="256.4542660281853" y1="210" x2="273.52983602207553" y2="0" id="q-40" class="non-perfect"/><line x1="247.8643325808194" y1="210" x2="47.59780717365142" y2="0" id="q-41" class="perfect"/><line x1="0" y1="2.257377924004765" x2="252.51608915319372" y2="210" id="q-42" class="non-perfect"/><line x1="197.7944465960954" y1="210" x2="116.4173821544031" y2="0" id="q-43" class="non-perfect"/><line x1="240.92960633747063" y1="210" x2="13.71026418417287" y2="0" id="q-44" class="perfect"/><line x1="232.26513152345325" y1="210" x2="54.243409520419384" y2="0" id="q-45" class="perfect"/><line x1="0" y1="2.615282390670349" x2="246.78809255840747" y2="210" id="q-46" class="perfect"/><line x1="326.3876644188557" y1="210" x2="66.30694675276084" y2="0" id="q-47" class="non-perfect"/><line x1="221.56688848058783" y1="210" x2="109.3122382589349" y2="0" id="q-48" class="non-perfect"/><line x1="36.41048812922389" y1="210" x2="281.6474764657764" y2="0" id="q-49" class="non-perfect"/><line x1="152.25585282305317" y1="210" x2="130.43748562788264" y2="0" id="q-50" class="non-perfect"/><line x1="153.80577333729184" y1="210" x2="239.85696080470265" y2="0" id="q-51" class="perfect"/><line x1="29.03929443779715" y1="210" x2="296.41222675379555" y2="0" id="q-52" class="non-perfect"/><line x1="289.2364404573853" y1="210" x2="39.955958248179215" y2="0" id="q-53" class="non-perfect"/><line x1="179.73203521885836" y1="210" x2="192.05977873775004" y2="0" id="q-54" class="perfect"/><line x1="32.69144466444226" y1="210" x2="292.65757713985363" y2="0" id="q-55" class="non-perfect"/><line x1="264.16194547404746" y1="210" x2="260.0657004051226" y2="0" id="q-56" class="non-perfect"/><line x1="10.89912153561919" y1="210" x2="336.9698229520328" y2="0" id="q-57" class="non-perfect"/><line x1="22.189661272541017" y1="210" x2="310.3027633841351" y2="0" id="q-58" class="non-perfect"/><line x1="360" y1="2.2997925054235555" x2="1.0727255998590701" y2="210" id="q-59" class="non-perfect"/><line x1="270.39740767556" y1="210" x2="257.8040476785529" y2="0" id="q-60" class="non-perfect"/><line x1="213.226520356115" y1="210" x2="108.13421580629134" y2="0" id="q-61" class="non-perfect"/><line x1="297.3475650973777" y1="210" x2="229.33944003917782" y2="0" id="q-62" class="non-perfect"/><circle cx="97.89412706968353" cy="153.97242338059027" r="10" fill="orange" stroke="orange"/><circle cx="264.4679300727684" cy="111.12325230913834" r="10" fill="#660066" stroke="#660066"/><circle cx="129.87917839488128" cy="51.330866892596234" r="10" fill="blue" stroke="blue"/><circle cx="132.22677371660654" cy="48.754349991673" r="10" fill="blue" stroke="blue"/><circle cx="128.31731253417428" cy="59.94385108500726" r="10" fill="blue" stroke="blue"/><circle cx="131.78613463364445" cy="42.09788202144286" r="10" fill="blue" stroke="blue"/><circle cx="112.91135809385504" cy="62.47160425022537" r="10" fill="blue" stroke="blue"/><circle cx="98.3317553794666" cy="156.975918449615" r="10" fill="orange" stroke="orange"/><circle cx="98.36261502237112" cy="160.05489005527974" r="10" fill="orange" stroke="orange"/><circle cx="100.32509350383243" cy="153.00062298198628" r="10" fill="orange" stroke="orange"/><circle cx="143.14630857901943" cy="151.08288928211527" r="10" fill="red" stroke="red"/><circle cx="100.24683004664188" cy="149.84683774790554" r="10" fill="orange" stroke="orange"/><circle cx="99.39224263721206" cy="153.7285497595058" r="10" fill="orange" stroke="orange"/><circle cx="102.66950499719019" cy="63.39587844094506" r="10" fill="blue" stroke="blue"/><circle cx="99.69788046339308" cy="151.6075521302529" r="10" fill="orange" stroke="orange"/><circle cx="129.12104207604798" cy="41.95463170855657" r="10" fill="blue" stroke="blue"/><circle cx="112.16388127472402" cy="64.47880302465994" r="10" fill="blue" stroke="blue"/><circle cx="99.86788341113466" cy="155.78418744088592" r="10" fill="orange" stroke="orange"/><circle cx="148.98921231257236" cy="147.91135249575072" r="10" fill="red" stroke="red"/><circle cx="133.17712696570135" cy="50.04183121258783" r="10" fill="blue" stroke="blue"/><circle cx="266.4659117528446" cy="111.57674077669027" r="10" fill="#660066" stroke="#660066"/><circle cx="272.0424143492432" cy="105.11434776255486" r="10" fill="#660066" stroke="#660066"/><circle cx="139.29158299966153" cy="146.66276695699878" r="10" fill="red" stroke="red"/><circle cx="268.77768599774373" cy="107.94242080418996" r="10" fill="#660066" stroke="#660066"/><circle cx="97.85673643986865" cy="159.19218363616753" r="10" fill="orange" stroke="orange"/><circle cx="98.19485881312823" cy="155.6838490833461" r="10" fill="orange" stroke="orange"/><circle cx="264.67225932592567" cy="108.93288374352707" r="10" fill="#660066" stroke="#660066"/><circle cx="267.71020441849396" cy="103.62662451022342" r="10" fill="#660066" stroke="#660066"/><circle cx="116.38818993298645" cy="57.110153479383825" r="10" fill="blue" stroke="blue"/><circle cx="140.6239826608373" cy="45.38293476612325" r="10" fill="blue" stroke="blue"/><circle cx="270.1701163158314" cy="109.93389242425665" r="10" fill="#660066" stroke="#660066"/><circle cx="268.129736417479" cy="105.55576123152204" r="10" fill="#660066" stroke="#660066"/><circle cx="269.59378573243805" cy="107.67728279437827" r="10" fill="#660066" stroke="#660066"/><circle cx="265.4229725724432" cy="103.95189707450574" r="10" fill="#660066" stroke="#660066"/><circle cx="94.53836992793657" cy="151.77820394068144" r="10" fill="orange" stroke="orange"/><circle cx="263.88814046968815" cy="111.88677932608458" r="10" fill="#660066" stroke="#660066"/><circle cx="265.59198861008247" cy="108.06171911242852" r="10" fill="#660066" stroke="#660066"/><circle cx="136.0000688705362" cy="53.5394083614655" r="10" fill="blue" stroke="blue"/><circle cx="271.59895180974814" cy="105.1712249989626" r="10" fill="#660066" stroke="#660066"/><circle cx="264.5676617674923" cy="107.68181976650769" r="10" fill="#660066" stroke="#660066"/><circle cx="269.1932960706462" cy="111.14686432261837" r="10" fill="#660066" stroke="#660066"/><circle cx="117.93933324742108" cy="125.68499593023017" r="10" fill="orange" stroke="orange"/><circle cx="268.545364158046" cy="106.35174145972248" r="10" fill="#660066" stroke="#660066"/><circle cx="98.88970726675947" cy="160.19273634277664" r="10" fill="orange" stroke="orange"/><circle cx="267.3096258204607" cy="111.28039230484141" r="10" fill="#660066" stroke="#660066"/><circle cx="120.18624132066702" cy="46.43385392032485" r="10" fill="blue" stroke="blue"/><circle cx="267.3072180349776" cy="103.64997858608523" r="10" fill="#660066" stroke="#660066"/><circle cx="261.5835853127303" cy="104.70526620385041" r="10" fill="#660066" stroke="#660066"/><circle cx="98.76038913934715" cy="83.5066255896496" r="10" fill="blue" stroke="blue"/><circle cx="135.14279872319688" cy="48.32243064458447" r="10" fill="blue" stroke="blue"/><circle cx="266.2265470279751" cy="109.07908931924239" r="10" fill="#660066" stroke="#660066"/><circle cx="264.08413222544226" cy="106.53796353644326" r="10" fill="#660066" stroke="#660066"/><circle cx="112.52283115371554" cy="61.132116035456974" r="10" fill="blue" stroke="blue"/><circle cx="137.59053792847232" cy="46.256712261963955" r="10" fill="blue" stroke="blue"/><circle cx="136.33180283247572" cy="39.25554832781995" r="10" fill="blue" stroke="blue"/><circle cx="97.1576743271576" cy="159.4207768724557" r="10" fill="orange" stroke="orange"/><circle cx="262.1440563454777" cy="106.54995592722582" r="10" fill="#660066" stroke="#660066"/><circle cx="266.72682791702425" cy="104.27228126623704" r="10" fill="#660066" stroke="#660066"/><circle cx="264.66121888886505" cy="109.06893030312747" r="10" fill="#660066" stroke="#660066"/><circle cx="271.05920215020143" cy="106.1276312408898" r="10" fill="#660066" stroke="#660066"/><circle cx="108.20123599144294" cy="95.3848505489117" r="10" fill="blue" stroke="blue"/><circle cx="100.42679599636953" cy="103.31189554465286" r="10" fill="blue" stroke="blue"/><circle cx="267.78031200721017" cy="102.29204564923441" r="10" fill="#660066" stroke="#660066"/><circle cx="127.95567300669555" cy="200.4545454545468" r="10" fill="orange" stroke="orange"/><circle cx="111.30561679193471" cy="44.23056497037704" r="10" fill="blue" stroke="blue"/><circle cx="108.61462061835147" cy="31.832537682422156" r="10" fill="blue" stroke="blue"/><text class="x-label label" text-anchor="end" x="360" y="205">Dim 1</text><text class="y label" text-anchor="end" y="5" x="0" dy=".75em" transform="rotate(-90)">Dim 2</text></g></svg>